<svg xmlns="http://www.w3.org/2000/svg" width="640" height="380" viewBox="0 0 640 380" font-family="Helvetica,Arial,sans-serif">
<rect width="640" height="380" fill="#ffffff"/>
<text x="320" y="26" text-anchor="middle" font-size="16" font-weight="700" fill="#1a1a2e">Fig 1.  ClarityLoopBench: completion vs false-commit (36 cases)</text>
<line x1="54" y1="316" x2="622" y2="316" stroke="#d9d9e3"/><text x="46" y="320" text-anchor="end" font-size="11" fill="#8a8a99">0</text><line x1="54" y1="261.6" x2="622" y2="261.6" stroke="#d9d9e3"/><text x="46" y="265.6" text-anchor="end" font-size="11" fill="#8a8a99">20</text><line x1="54" y1="207.2" x2="622" y2="207.2" stroke="#d9d9e3"/><text x="46" y="211.2" text-anchor="end" font-size="11" fill="#8a8a99">40</text><line x1="54" y1="152.8" x2="622" y2="152.8" stroke="#d9d9e3"/><text x="46" y="156.8" text-anchor="end" font-size="11" fill="#8a8a99">60</text><line x1="54" y1="98.39999999999998" x2="622" y2="98.39999999999998" stroke="#d9d9e3"/><text x="46" y="102.39999999999998" text-anchor="end" font-size="11" fill="#8a8a99">80</text><line x1="54" y1="44" x2="622" y2="44" stroke="#d9d9e3"/><text x="46" y="48" text-anchor="end" font-size="11" fill="#8a8a99">100</text><rect x="71.03999999999999" y="44" width="35.76" height="272" fill="#3b6fd4" rx="2"/><text x="88.91999999999999" y="39" text-anchor="middle" font-size="11" font-weight="600" fill="#1a1a2e">100</text><rect x="110.79999999999998" y="65.75999999999999" width="35.76" height="250.24" fill="#d4493b" rx="2"/><text x="128.67999999999998" y="60.75999999999999" text-anchor="middle" font-size="11" font-weight="600" fill="#1a1a2e">92</text><text x="110.8" y="334" text-anchor="middle" font-size="11" fill="#1a1a2e">bare_qwen</text><rect x="184.64" y="44" width="35.76" height="272" fill="#3b6fd4" rx="2"/><text x="202.51999999999998" y="39" text-anchor="middle" font-size="11" font-weight="600" fill="#1a1a2e">100</text><rect x="224.39999999999998" y="163.67999999999998" width="35.76" height="152.32000000000002" fill="#d4493b" rx="2"/><text x="242.27999999999997" y="158.67999999999998" text-anchor="middle" font-size="11" font-weight="600" fill="#1a1a2e">56</text><text x="224.39999999999998" y="334" text-anchor="middle" font-size="11" fill="#1a1a2e">dynamic_qwen</text><rect x="298.24" y="44" width="35.76" height="272" fill="#3b6fd4" rx="2"/><text x="316.12" y="39" text-anchor="middle" font-size="11" font-weight="600" fill="#1a1a2e">100</text><rect x="338" y="218.07999999999998" width="35.76" height="97.92000000000002" fill="#d4493b" rx="2"/><text x="355.88" y="213.07999999999998" text-anchor="middle" font-size="11" font-weight="600" fill="#1a1a2e">36</text><text x="338" y="334" text-anchor="middle" font-size="11" fill="#1a1a2e">harness_evol.</text><rect x="411.84" y="231.68" width="35.76" height="84.32" fill="#3b6fd4" rx="2"/><text x="429.71999999999997" y="226.68" text-anchor="middle" font-size="11" font-weight="600" fill="#1a1a2e">31</text><rect x="451.59999999999997" y="316" width="35.76" height="0" fill="#d4493b" rx="2"/><text x="469.47999999999996" y="311" text-anchor="middle" font-size="11" font-weight="600" fill="#1a1a2e">0</text><text x="451.59999999999997" y="334" text-anchor="middle" font-size="11" fill="#1a1a2e">fixed_gate</text><rect x="525.4399999999999" y="82.08000000000001" width="35.76" height="233.92" fill="#3b6fd4" rx="2"/><text x="543.3199999999999" y="77.08000000000001" text-anchor="middle" font-size="11" font-weight="600" fill="#1a1a2e">86</text><rect x="565.1999999999999" y="316" width="35.76" height="0" fill="#d4493b" rx="2"/><text x="583.0799999999999" y="311" text-anchor="middle" font-size="11" font-weight="600" fill="#1a1a2e">0</text><text x="565.1999999999999" y="334" text-anchor="middle" font-size="11" fill="#1a1a2e">clarityloop</text><text x="14" y="180" transform="rotate(-90 14 180)" text-anchor="middle" font-size="11" fill="#8a8a99">rate (%)</text><text x="320" y="372" text-anchor="middle" font-size="10" fill="#8a8a99">blue = task completion (higher better) · red = false-commit (lower better) · one uniform scorer for all baselines</text>
</svg>