<svg xmlns="http://www.w3.org/2000/svg" width="640" height="360" viewBox="0 0 640 360" font-family="Helvetica,Arial,sans-serif">
<rect width="640" height="360" fill="#ffffff"/>
<text x="320" y="26" text-anchor="middle" font-size="16" font-weight="700" fill="#1a1a2e">Fig 2.  Entropy threshold is inert on realistic load</text>
<line x1="54" y1="304" x2="530" y2="304" stroke="#d9d9e3"/><text x="46" y="308" text-anchor="end" font-size="11" fill="#8a8a99">0</text><line x1="54" y1="252" x2="530" y2="252" stroke="#d9d9e3"/><text x="46" y="256" text-anchor="end" font-size="11" fill="#8a8a99">20</text><line x1="54" y1="200" x2="530" y2="200" stroke="#d9d9e3"/><text x="46" y="204" text-anchor="end" font-size="11" fill="#8a8a99">40</text><line x1="54" y1="148" x2="530" y2="148" stroke="#d9d9e3"/><text x="46" y="152" text-anchor="end" font-size="11" fill="#8a8a99">60</text><line x1="54" y1="96" x2="530" y2="96" stroke="#d9d9e3"/><text x="46" y="100" text-anchor="end" font-size="11" fill="#8a8a99">80</text><line x1="54" y1="44" x2="530" y2="44" stroke="#d9d9e3"/><text x="46" y="48" text-anchor="end" font-size="11" fill="#8a8a99">100</text><text x="54" y="322" text-anchor="middle" font-size="11" fill="#1a1a2e">0.10</text><text x="173" y="322" text-anchor="middle" font-size="11" fill="#1a1a2e">0.20</text><text x="292" y="322" text-anchor="middle" font-size="11" fill="#1a1a2e">0.30</text><text x="411" y="322" text-anchor="middle" font-size="11" fill="#1a1a2e">0.50</text><text x="530" y="322" text-anchor="middle" font-size="11" fill="#1a1a2e">0.90</text><polyline points="54,80.4 173,80.4 292,80.4 411,80.4 530,80.4" fill="none" stroke="#3b6fd4" stroke-width="2.5"/><circle cx="54" cy="80.4" r="3.5" fill="#3b6fd4"/><circle cx="173" cy="80.4" r="3.5" fill="#3b6fd4"/><circle cx="292" cy="80.4" r="3.5" fill="#3b6fd4"/><circle cx="411" cy="80.4" r="3.5" fill="#3b6fd4"/><circle cx="530" cy="80.4" r="3.5" fill="#3b6fd4"/><text x="540" y="58" font-size="11" fill="#3b6fd4" font-weight="600">completion</text><line x1="530" y1="54" x2="538" y2="54" stroke="#3b6fd4" stroke-width="3"/><polyline points="54,304 173,304 292,304 411,304 530,304" fill="none" stroke="#d4493b" stroke-width="2.5"/><circle cx="54" cy="304" r="3.5" fill="#d4493b"/><circle cx="173" cy="304" r="3.5" fill="#d4493b"/><circle cx="292" cy="304" r="3.5" fill="#d4493b"/><circle cx="411" cy="304" r="3.5" fill="#d4493b"/><circle cx="530" cy="304" r="3.5" fill="#d4493b"/><text x="540" y="76" font-size="11" fill="#d4493b" font-weight="600">false-commit</text><line x1="530" y1="72" x2="538" y2="72" stroke="#d4493b" stroke-width="3"/><text x="292" y="348" text-anchor="middle" font-size="11" fill="#8a8a99">commit-entropy threshold τ</text><text x="320" y="14" text-anchor="middle" font-size="10" fill="#8a8a99">ClarityLoop on the 36-case bench — both curves are flat: the named uncertainty knob changes nothing (003).</text>
</svg>