<svg xmlns="http://www.w3.org/2000/svg" width="640" height="360" viewBox="0 0 640 360" font-family="Helvetica,Arial,sans-serif">
<rect width="640" height="360" fill="#ffffff"/>
<text x="320" y="26" text-anchor="middle" font-size="16" font-weight="700" fill="#1a1a2e">Fig 3.  Release-control robustness vs emission infidelity</text>
<line x1="54" y1="304" x2="530" y2="304" stroke="#d9d9e3"/><text x="46" y="308" text-anchor="end" font-size="11" fill="#8a8a99">0</text><line x1="54" y1="252" x2="530" y2="252" stroke="#d9d9e3"/><text x="46" y="256" text-anchor="end" font-size="11" fill="#8a8a99">8</text><line x1="54" y1="200" x2="530" y2="200" stroke="#d9d9e3"/><text x="46" y="204" text-anchor="end" font-size="11" fill="#8a8a99">16</text><line x1="54" y1="148" x2="530" y2="148" stroke="#d9d9e3"/><text x="46" y="152" text-anchor="end" font-size="11" fill="#8a8a99">24</text><line x1="54" y1="96" x2="530" y2="96" stroke="#d9d9e3"/><text x="46" y="100" text-anchor="end" font-size="11" fill="#8a8a99">32</text><line x1="54" y1="44" x2="530" y2="44" stroke="#d9d9e3"/><text x="46" y="48" text-anchor="end" font-size="11" fill="#8a8a99">40</text><text x="54" y="322" text-anchor="middle" font-size="11" fill="#1a1a2e">0</text><text x="149.2" y="322" text-anchor="middle" font-size="11" fill="#1a1a2e">0.10</text><text x="244.4" y="322" text-anchor="middle" font-size="11" fill="#1a1a2e">0.25</text><text x="339.59999999999997" y="322" text-anchor="middle" font-size="11" fill="#1a1a2e">0.50</text><text x="434.8" y="322" text-anchor="middle" font-size="11" fill="#1a1a2e">0.75</text><text x="530" y="322" text-anchor="middle" font-size="11" fill="#1a1a2e">1.0</text><polyline points="54,304 149.2,278.65 244.4,239.65 339.59999999999997,175.95 434.8,113.54999999999998 530,51.150000000000034" fill="none" stroke="#d4493b" stroke-width="2.5"/><circle cx="54" cy="304" r="3.5" fill="#d4493b"/><circle cx="149.2" cy="278.65" r="3.5" fill="#d4493b"/><circle cx="244.4" cy="239.65" r="3.5" fill="#d4493b"/><circle cx="339.59999999999997" cy="175.95" r="3.5" fill="#d4493b"/><circle cx="434.8" cy="113.54999999999998" r="3.5" fill="#d4493b"/><circle cx="530" cy="51.150000000000034" r="3.5" fill="#d4493b"/><text x="540" y="58" font-size="11" fill="#d4493b" font-weight="600">extract (correlated)</text><line x1="530" y1="54" x2="538" y2="54" stroke="#d4493b" stroke-width="3"/><polyline points="54,304 149.2,288.4 244.4,259.15 339.59999999999997,201.3 434.8,135 530,51.150000000000034" fill="none" stroke="#8a8a99" stroke-width="2.5"/><circle cx="54" cy="304" r="3.5" fill="#8a8a99"/><circle cx="149.2" cy="288.4" r="3.5" fill="#8a8a99"/><circle cx="244.4" cy="259.15" r="3.5" fill="#8a8a99"/><circle cx="339.59999999999997" cy="201.3" r="3.5" fill="#8a8a99"/><circle cx="434.8" cy="135" r="3.5" fill="#8a8a99"/><circle cx="530" cy="51.150000000000034" r="3.5" fill="#8a8a99"/><text x="540" y="76" font-size="11" fill="#8a8a99" font-weight="600">extract (i.i.d.)</text><line x1="530" y1="72" x2="538" y2="72" stroke="#8a8a99" stroke-width="3"/><polyline points="54,304 149.2,289.7 244.4,266.95 339.59999999999997,229.89999999999998 434.8,195.45 530,159.70000000000002" fill="none" stroke="#3b6fd4" stroke-width="2.5"/><circle cx="54" cy="304" r="3.5" fill="#3b6fd4"/><circle cx="149.2" cy="289.7" r="3.5" fill="#3b6fd4"/><circle cx="244.4" cy="266.95" r="3.5" fill="#3b6fd4"/><circle cx="339.59999999999997" cy="229.89999999999998" r="3.5" fill="#3b6fd4"/><circle cx="434.8" cy="195.45" r="3.5" fill="#3b6fd4"/><circle cx="530" cy="159.70000000000002" r="3.5" fill="#3b6fd4"/><text x="540" y="94" font-size="11" fill="#3b6fd4" font-weight="600">emit (i.i.d.)</text><line x1="530" y1="90" x2="538" y2="90" stroke="#3b6fd4" stroke-width="3"/><text x="292" y="348" text-anchor="middle" font-size="11" fill="#8a8a99">per-signal emission infidelity  p</text><text x="320" y="14" text-anchor="middle" font-size="10" fill="#8a8a99">18 unsafe cases, n=36k/point, Wilson CIs &lt;1pt. No collapse under correlated breach; cross-channel redundancy survives full single-channel takeover.</text>
</svg>