<svg xmlns="http://www.w3.org/2000/svg" width="640" height="380" viewBox="0 0 640 380" font-family="Helvetica,Arial,sans-serif">
<rect width="640" height="380" fill="#ffffff"/>
<text x="320" y="26" text-anchor="middle" font-size="16" font-weight="700" fill="#1a1a2e">Fig 3.  Adversarial emission: where the guarantee holds</text>
<line x1="54" y1="316" x2="622" y2="316" stroke="#d9d9e3"/><text x="46" y="320" text-anchor="end" font-size="11" fill="#8a8a99">0</text><line x1="54" y1="261.6" x2="622" y2="261.6" stroke="#d9d9e3"/><text x="46" y="265.6" text-anchor="end" font-size="11" fill="#8a8a99">20</text><line x1="54" y1="207.2" x2="622" y2="207.2" stroke="#d9d9e3"/><text x="46" y="211.2" text-anchor="end" font-size="11" fill="#8a8a99">40</text><line x1="54" y1="152.8" x2="622" y2="152.8" stroke="#d9d9e3"/><text x="46" y="156.8" text-anchor="end" font-size="11" fill="#8a8a99">60</text><line x1="54" y1="98.39999999999998" x2="622" y2="98.39999999999998" stroke="#d9d9e3"/><text x="46" y="102.39999999999998" text-anchor="end" font-size="11" fill="#8a8a99">80</text><line x1="54" y1="44" x2="622" y2="44" stroke="#d9d9e3"/><text x="46" y="48" text-anchor="end" font-size="11" fill="#8a8a99">100</text><rect x="98" y="316" width="50" height="0" fill="#2e9e6b" rx="2"/><text x="123" y="311" text-anchor="middle" font-size="11" font-weight="600" fill="#1a1a2e">0</text><text x="125" y="334" text-anchor="middle" font-size="11" fill="#1a1a2e">honest</text><rect x="240" y="269.76" width="50" height="46.24000000000001" fill="#3b6fd4" rx="2"/><text x="265" y="264.76" text-anchor="middle" font-size="11" font-weight="600" fill="#1a1a2e">17</text><text x="267" y="334" text-anchor="middle" font-size="11" fill="#1a1a2e">emit-corrupt</text><rect x="382" y="133.76" width="50" height="182.24" fill="#d4493b" rx="2"/><text x="407" y="128.76" text-anchor="middle" font-size="11" font-weight="600" fill="#1a1a2e">67</text><text x="409" y="334" text-anchor="middle" font-size="11" fill="#1a1a2e">extract-corrupt</text><rect x="524" y="44" width="50" height="272" fill="#1a1a2e" rx="2"/><text x="549" y="39" text-anchor="middle" font-size="11" font-weight="600" fill="#1a1a2e">100</text><text x="551" y="334" text-anchor="middle" font-size="11" fill="#1a1a2e">both</text><text x="14" y="180" transform="rotate(-90 14 180)" text-anchor="middle" font-size="11" fill="#8a8a99">false-commit (%)</text><text x="320" y="372" text-anchor="middle" font-size="10" fill="#8a8a99">6 unsafe archetypes. Self-report corruption defeats 1/6; only a compromised verifier/extraction layer breaks the gate.</text>
</svg>