<svg xmlns="http://www.w3.org/2000/svg" width="640" height="380" viewBox="0 0 640 380" font-family="Helvetica,Arial,sans-serif">
<rect width="640" height="380" fill="#ffffff"/>
<text x="320" y="26" text-anchor="middle" font-size="16" font-weight="700" fill="#1a1a2e">Fig 4.  Diffuse regime, held-out: calibrated weighting generalizes</text>
<line x1="54" y1="316" x2="622" y2="316" stroke="#d9d9e3"/><text x="46" y="320" text-anchor="end" font-size="11" fill="#8a8a99">0</text><line x1="54" y1="261.6" x2="622" y2="261.6" stroke="#d9d9e3"/><text x="46" y="265.6" text-anchor="end" font-size="11" fill="#8a8a99">20</text><line x1="54" y1="207.2" x2="622" y2="207.2" stroke="#d9d9e3"/><text x="46" y="211.2" text-anchor="end" font-size="11" fill="#8a8a99">40</text><line x1="54" y1="152.8" x2="622" y2="152.8" stroke="#d9d9e3"/><text x="46" y="156.8" text-anchor="end" font-size="11" fill="#8a8a99">60</text><line x1="54" y1="98.39999999999998" x2="622" y2="98.39999999999998" stroke="#d9d9e3"/><text x="46" y="102.39999999999998" text-anchor="end" font-size="11" fill="#8a8a99">80</text><line x1="54" y1="44" x2="622" y2="44" stroke="#d9d9e3"/><text x="46" y="48" text-anchor="end" font-size="11" fill="#8a8a99">100</text><rect x="121.66666666666667" y="239.024" width="50" height="76.976" fill="#8a8a99" rx="2"/><text x="146.66666666666669" y="234.024" text-anchor="middle" font-size="11" font-weight="600" fill="#1a1a2e">28.3</text><text x="148.66666666666669" y="334" text-anchor="middle" font-size="11" fill="#1a1a2e">entropy-OFF</text><rect x="311" y="103.02400000000003" width="50" height="212.97599999999997" fill="#3b6fd4" rx="2"/><text x="336" y="98.02400000000003" text-anchor="middle" font-size="11" font-weight="600" fill="#1a1a2e">78.3</text><text x="338" y="334" text-anchor="middle" font-size="11" fill="#1a1a2e">naive count</text><rect x="500.33333333333337" y="48.624000000000024" width="50" height="267.376" fill="#2e9e6b" rx="2"/><text x="525.3333333333334" y="43.624000000000024" text-anchor="middle" font-size="11" font-weight="600" fill="#1a1a2e">98.3</text><text x="527.3333333333334" y="334" text-anchor="middle" font-size="11" fill="#1a1a2e">calibrated weighted</text><text x="14" y="180" transform="rotate(-90 14 180)" text-anchor="middle" font-size="11" fill="#8a8a99">held-out accuracy (%)</text><text x="320" y="372" text-anchor="middle" font-size="10" fill="#8a8a99">120-case diffuse corpus, materiality GT independent of weights; τ tuned on calib half, scored on held-out test.</text>
</svg>